<mxfile host="app.diagrams.net" agent="Mozilla/5.0 (Macintosh; Intel Mac OS X 10_15_7) AppleWebKit/537.36 (KHTML, like Gecko) Chrome/137.0.0.0 Safari/537.36" version="27.2.0">
  <diagram name="ç¬¬ 1 é¡µ" id="UwyabHe5bikaBvLYeK72">
    <mxGraphModel dx="1554" dy="862" grid="1" gridSize="10" guides="1" tooltips="1" connect="1" arrows="1" fold="1" page="1" pageScale="1" pageWidth="827" pageHeight="1169" math="0" shadow="0">
      <root>
        <mxCell id="0" />
        <mxCell id="1" parent="0" />
        <mxCell id="buvRByq2JtKXo1E4kbxt-15" style="edgeStyle=orthogonalEdgeStyle;rounded=0;orthogonalLoop=1;jettySize=auto;html=1;exitX=0.5;exitY=1;exitDx=0;exitDy=0;entryX=0.5;entryY=0;entryDx=0;entryDy=0;" edge="1" parent="1" source="buvRByq2JtKXo1E4kbxt-1" target="buvRByq2JtKXo1E4kbxt-2">
          <mxGeometry relative="1" as="geometry" />
        </mxCell>
        <mxCell id="buvRByq2JtKXo1E4kbxt-1" value="VIT" style="whiteSpace=wrap;html=1;aspect=fixed;" vertex="1" parent="1">
          <mxGeometry x="110" y="190" width="80" height="80" as="geometry" />
        </mxCell>
        <mxCell id="buvRByq2JtKXo1E4kbxt-18" style="edgeStyle=orthogonalEdgeStyle;rounded=0;orthogonalLoop=1;jettySize=auto;html=1;exitX=0.5;exitY=1;exitDx=0;exitDy=0;entryX=0.5;entryY=0;entryDx=0;entryDy=0;" edge="1" parent="1" source="buvRByq2JtKXo1E4kbxt-2" target="buvRByq2JtKXo1E4kbxt-3">
          <mxGeometry relative="1" as="geometry" />
        </mxCell>
        <mxCell id="buvRByq2JtKXo1E4kbxt-19" style="edgeStyle=orthogonalEdgeStyle;rounded=0;orthogonalLoop=1;jettySize=auto;html=1;exitX=0.5;exitY=1;exitDx=0;exitDy=0;entryX=0.5;entryY=1;entryDx=0;entryDy=0;" edge="1" parent="1" source="buvRByq2JtKXo1E4kbxt-2" target="buvRByq2JtKXo1E4kbxt-7">
          <mxGeometry relative="1" as="geometry">
            <Array as="points">
              <mxPoint x="150" y="350" />
              <mxPoint x="228" y="350" />
              <mxPoint x="228" y="320" />
            </Array>
          </mxGeometry>
        </mxCell>
        <mxCell id="buvRByq2JtKXo1E4kbxt-2" value="projecter" style="rounded=0;whiteSpace=wrap;html=1;" vertex="1" parent="1">
          <mxGeometry x="110" y="300" width="80" height="30" as="geometry" />
        </mxCell>
        <mxCell id="buvRByq2JtKXo1E4kbxt-3" value="LLM" style="whiteSpace=wrap;html=1;aspect=fixed;" vertex="1" parent="1">
          <mxGeometry x="110" y="380" width="80" height="80" as="geometry" />
        </mxCell>
        <mxCell id="buvRByq2JtKXo1E4kbxt-14" style="edgeStyle=orthogonalEdgeStyle;rounded=0;orthogonalLoop=1;jettySize=auto;html=1;exitX=0.5;exitY=1;exitDx=0;exitDy=0;entryX=0.5;entryY=0;entryDx=0;entryDy=0;" edge="1" parent="1" source="buvRByq2JtKXo1E4kbxt-4" target="buvRByq2JtKXo1E4kbxt-5">
          <mxGeometry relative="1" as="geometry" />
        </mxCell>
        <mxCell id="buvRByq2JtKXo1E4kbxt-4" value="VIT" style="whiteSpace=wrap;html=1;aspect=fixed;" vertex="1" parent="1">
          <mxGeometry x="460" y="180" width="80" height="80" as="geometry" />
        </mxCell>
        <mxCell id="buvRByq2JtKXo1E4kbxt-13" style="edgeStyle=orthogonalEdgeStyle;rounded=0;orthogonalLoop=1;jettySize=auto;html=1;exitX=0.5;exitY=1;exitDx=0;exitDy=0;entryX=0.5;entryY=0;entryDx=0;entryDy=0;" edge="1" parent="1" source="buvRByq2JtKXo1E4kbxt-5" target="buvRByq2JtKXo1E4kbxt-6">
          <mxGeometry relative="1" as="geometry" />
        </mxCell>
        <mxCell id="buvRByq2JtKXo1E4kbxt-21" style="edgeStyle=orthogonalEdgeStyle;rounded=0;orthogonalLoop=1;jettySize=auto;html=1;exitX=0.5;exitY=1;exitDx=0;exitDy=0;" edge="1" parent="1" source="buvRByq2JtKXo1E4kbxt-5">
          <mxGeometry relative="1" as="geometry">
            <mxPoint x="400" y="520" as="targetPoint" />
          </mxGeometry>
        </mxCell>
        <mxCell id="buvRByq2JtKXo1E4kbxt-5" value="projecter" style="rounded=0;whiteSpace=wrap;html=1;" vertex="1" parent="1">
          <mxGeometry x="460" y="290" width="80" height="30" as="geometry" />
        </mxCell>
        <mxCell id="buvRByq2JtKXo1E4kbxt-6" value="LLM" style="whiteSpace=wrap;html=1;aspect=fixed;" vertex="1" parent="1">
          <mxGeometry x="460" y="350" width="80" height="80" as="geometry" />
        </mxCell>
        <mxCell id="buvRByq2JtKXo1E4kbxt-12" style="edgeStyle=orthogonalEdgeStyle;rounded=0;orthogonalLoop=1;jettySize=auto;html=1;exitX=0.5;exitY=0;exitDx=0;exitDy=0;entryX=0.5;entryY=0;entryDx=0;entryDy=0;" edge="1" parent="1" source="buvRByq2JtKXo1E4kbxt-7" target="buvRByq2JtKXo1E4kbxt-11">
          <mxGeometry relative="1" as="geometry">
            <Array as="points">
              <mxPoint x="345" y="320" />
              <mxPoint x="345" y="450" />
              <mxPoint x="400" y="450" />
            </Array>
          </mxGeometry>
        </mxCell>
        <mxCell id="buvRByq2JtKXo1E4kbxt-7" value="MLPí ½í´¥" style="shape=trapezoid;perimeter=trapezoidPerimeter;whiteSpace=wrap;html=1;fixedSize=1;rotation=90;" vertex="1" parent="1">
          <mxGeometry x="240" y="290" width="110" height="60" as="geometry" />
        </mxCell>
        <mxCell id="buvRByq2JtKXo1E4kbxt-8" value="Teacher" style="text;html=1;align=center;verticalAlign=middle;whiteSpace=wrap;rounded=0;" vertex="1" parent="1">
          <mxGeometry x="110" y="130" width="60" height="30" as="geometry" />
        </mxCell>
        <mxCell id="buvRByq2JtKXo1E4kbxt-9" value="Student" style="text;html=1;align=center;verticalAlign=middle;whiteSpace=wrap;rounded=0;" vertex="1" parent="1">
          <mxGeometry x="470" y="130" width="60" height="30" as="geometry" />
        </mxCell>
        <mxCell id="buvRByq2JtKXo1E4kbxt-11" value="Loss" style="rounded=1;whiteSpace=wrap;html=1;" vertex="1" parent="1">
          <mxGeometry x="340" y="525" width="120" height="60" as="geometry" />
        </mxCell>
      </root>
    </mxGraphModel>
  </diagram>
</mxfile>
